<svg height="480pt" viewBox="0 -27 480 480" width="480pt" xmlns="http://www.w3.org/2000/svg"><path d="m271.246094 58.503906-122.679688-58.503906-47.496094 27.425781 104.488282 69zm0 0"/><path d="m130.246094 151.425781-64.429688-66.648437-36.167968 20.878906 76 131.632812c3.179687 5.519532 8.421874 9.546876 14.574218 11.199219 6.152344 1.648438 12.710938.785157 18.226563-2.398437l318.695312-184c3.824219-2.210938 5.136719-7.105469 2.925781-10.929688l-8-13.855468c-15.488281-26.75-49.703124-35.917969-76.496093-20.496094l-235.558594 136c-3.1875 1.839844-7.21875 1.269531-9.769531-1.382813zm274.097656-132.800781 8 13.855469-27.710938 16-8-13.855469zm-41.601562 24 8 13.855469-13.863282 8-8-13.855469zm-27.710938 16 8 13.855469-13.863281 8-8-13.855469zm-27.710938 16 8 13.855469-13.855468 8-8-13.855469zm-27.71875 16 8 13.855469-13.847656 8-8-13.855469zm-27.714843 16 8 13.855469-13.847657 8-8-13.855469zm-27.710938 16 8 13.855469-13.855469 8-8-13.855469zm-27.710937 16 8 13.855469-13.855469 8-8-13.855469zm0 0"/><path d="m0 409.824219h480v16h-480zm0 0"/><path d="m424 193.824219h-16c-.105469 92.738281-75.261719 167.894531-168 168h-192v16h192c101.574219-.109375 183.890625-82.425781 184-184zm0 0"/><path d="m376 193.824219h-16c-.074219 66.242187-53.757812 119.925781-120 120h-224v16h224c75.074219-.085938 135.917969-60.925781 136-136zm0 0"/></svg>